<svg width="22" height="23" viewBox="0 0 22 23" fill="none" xmlns="http://www.w3.org/2000/svg">
<path d="M9.57261 0L8.20899 3.41272C7.93627 3.49875 7.69081 3.64214 7.44536 3.78554L4.19995 2.35162L2.23634 4.41646L3.59996 7.82918C3.46359 8.11596 3.3545 8.34539 3.24541 8.63217L0 10.0661V12.9339L3.24541 14.3678C3.3545 14.6546 3.46359 14.884 3.59996 15.1708L2.23634 18.5835L4.19995 20.6484L7.44536 19.2145C7.69081 19.3292 7.93627 19.4726 8.20899 19.5873L9.57261 23H12.2998L13.6635 19.5873C13.9089 19.4726 14.1816 19.3579 14.4271 19.2145L17.6725 20.6484L19.6361 18.5835L18.2725 15.1708C18.3816 14.9127 18.518 14.6259 18.627 14.3678L21.8725 12.9339V10.0661L18.627 8.63217C18.5452 8.37406 18.4089 8.08728 18.2725 7.82918L19.6361 4.41646L17.6725 2.35162L14.4271 3.78554C14.1816 3.67082 13.9089 3.52743 13.6635 3.41272L12.2998 0L9.57261 0ZM10.9362 7.16958C13.1998 7.16958 15.0271 9.09102 15.0271 11.4713C15.0271 13.8516 13.1998 15.7731 10.9362 15.7731C8.67262 15.7731 6.84537 13.8516 6.84537 11.4713C6.84537 9.09102 8.67262 7.16958 10.9362 7.16958Z" fill="#3555FE"/>
</svg>
