<svg width="20" height="22" viewBox="0 0 20 22" fill="none" xmlns="http://www.w3.org/2000/svg">
<path d="M8.6715 0.0272494C3.88979 0.0272494 0 4.30541 0 9.56454C0 14.8237 3.88979 19.1018 8.6715 19.1018C10.1333 19.1018 11.5703 18.7203 12.7843 17.9846C12.8815 18.1133 12.9893 18.2319 13.1063 18.3388L15.5839 21.0638C15.8127 21.3469 16.0917 21.5756 16.4037 21.7359C16.7157 21.8961 17.0543 21.9845 17.3985 21.9957C17.7428 22.0068 18.0854 21.9405 18.4055 21.8007C18.7256 21.6609 19.0163 21.4506 19.2598 21.1828C19.5033 20.915 19.6945 20.5952 19.8216 20.2432C19.9487 19.8912 20.009 19.5143 19.9989 19.1357C19.9888 18.757 19.9084 18.3847 19.7627 18.0415C19.617 17.6983 19.409 17.3915 19.1516 17.1399L16.674 14.4149C16.5534 14.2821 16.4205 14.1634 16.2776 14.0607C16.9466 12.7255 17.3678 11.1723 17.3678 9.53729C17.3678 4.27816 13.478 0 8.69627 0L8.6715 0.0272494ZM8.6715 2.75219C12.1153 2.75219 14.8654 5.77687 14.8654 9.56454C14.8654 11.363 14.2708 13.0252 13.2302 14.2514C13.2054 14.2787 13.1807 14.3059 13.1559 14.3332C13.0389 14.4401 12.9311 14.5587 12.8338 14.6874C11.7437 15.7774 10.2571 16.4041 8.64672 16.4041C5.2029 16.4041 2.45279 13.3795 2.45279 9.59179C2.45279 5.80412 5.2029 2.77944 8.64672 2.77944L8.6715 2.75219Z" fill="#0067FF"/>
</svg>
